<svg viewBox="0 0 640 400" data-background-color="#ffffff" preserveAspectRatio="xMidYMid meet" height="400" width="640" xmlns="http://www.w3.org/2000/svg" xmlns:xlink="http://www.w3.org/1999/xlink"><rect width="640" height="400" x="0" y="0" opacity="1" fill="#ffffff" data-fill-palette-color="background" id="background"></rect><g id="tight-bounds" transform="matrix(1,0,0,1,122.24000000000001,170.00258913902238)"><svg viewBox="0 0 395.52 59.99482172195526" height="59.99482172195526" width="395.52"><g><svg viewBox="0 0 489.56514221746613 74.2601472204201" height="59.99482172195526" width="395.52"><g><rect width="6.275084421397715" height="74.2601472204201" x="71.34313522696448" y="0" fill="#27292a" opacity="1" stroke-width="0" stroke="transparent" fill-opacity="1" class="rect-o-0" data-fill-palette-color="primary" rx="1%" id="o-0" data-palette-color="#27292a"></rect></g><g transform="matrix(1,0,0,1,94.04514221746615,0.18472673437914722)"><svg viewBox="0 0 395.52 73.8906937516618" height="73.8906937516618" width="395.52"><g><svg viewBox="0 0 395.52 73.8906937516618" height="73.8906937516618" width="395.52"><g><svg viewBox="0 0 395.52 73.8906937516618" height="73.8906937516618" width="395.52"><g transform="matrix(1,0,0,1,0,0)"><svg width="395.52" viewBox="3.0799999237060547 -37.349998474121094 275.4599914550781 48.459999084472656" height="73.8906937516618" data-palette-color="#27292a"><svg></svg><g class="undefined-text-0" data-fill-palette-color="primary" id="text-0"><path d="M3.08 0l5.76-37.35h6.37l8.5 27.58 1.44 5.96 1.39-5.98 8.2-27.56h6.08l6.03 37.35h-4.15l-4.54-28.22-0.68-6.59-1.49 6.64-8.43 28.15h-4.81l-8.79-28.3-1.73-6.49-0.83 6.54-4.12 28.27zM77.76-19.41v9.11c0 3.24 0.153 6.607 0.46 10.1v0l-3.61 0.3-0.61-3.4c-2.067 1.66-4.8 2.817-8.2 3.47v0c-1.107 0.213-2.093 0.32-2.96 0.32-0.86 0-1.62-0.04-2.28-0.12-0.66-0.087-1.297-0.247-1.91-0.48-0.607-0.233-1.17-0.563-1.69-0.99-0.52-0.42-0.977-0.98-1.37-1.68v0c-0.827-1.48-1.24-3.26-1.24-5.34 0-2.073 0.15-3.683 0.45-4.83 0.3-1.147 0.8-2.103 1.5-2.87v0c1.38-1.513 3.707-2.27 6.98-2.27 3.273 0 6.763 0.617 10.47 1.85v0-3.17c0-3.533-1.457-5.623-4.37-6.27v0c-0.94-0.213-2.02-0.32-3.24-0.32v0c-2.787 0-5.677 0.553-8.67 1.66v0l-0.9-3.52c0.827-0.553 2.943-1.05 6.35-1.49v0c1.073-0.127 2.36-0.19 3.86-0.19 1.507 0 2.987 0.18 4.44 0.54 1.447 0.353 2.65 0.937 3.61 1.75v0c1.953 1.613 2.93 4.227 2.93 7.84zM73.66-13.18v0c-3.813-0.96-7.33-1.44-10.55-1.44v0c-1.987 0-3.303 0.567-3.95 1.7v0c-0.44 0.8-0.66 1.98-0.66 3.54 0 1.567 0.083 2.7 0.25 3.4 0.173 0.7 0.453 1.277 0.84 1.73v0c0.767 0.867 2.03 1.3 3.79 1.3v0c2.747 0 5.473-0.71 8.18-2.13v0c0.827-0.42 1.573-0.89 2.24-1.41v0c-0.093-1.76-0.14-3.99-0.14-6.69zM92.72-1.73v0 12.84h-4.05v-40.16h3.3l0.46 3c1.907-1.433 4.39-2.483 7.45-3.15v0c1.107-0.227 2.31-0.34 3.61-0.34 1.3 0 2.453 0.17 3.46 0.51 1 0.34 1.823 0.817 2.47 1.43 0.653 0.613 1.16 1.34 1.52 2.18 0.353 0.847 0.62 1.767 0.8 2.76v0c0.227 1.367 0.34 3.55 0.34 6.55v0 0.56c0 3.807-0.13 6.443-0.39 7.91-0.26 1.467-0.6 2.673-1.02 3.62-0.427 0.953-1.013 1.763-1.76 2.43v0c-1.547 1.387-3.94 2.08-7.18 2.08-3.233 0-6.237-0.74-9.01-2.22zM92.72-22.92v17.84c2.773 1.273 5.68 1.91 8.72 1.91v0c1.987 0 3.437-0.367 4.35-1.1v0c1.233-1.013 1.923-3.367 2.07-7.06v0c0.047-1.22 0.07-2.62 0.07-4.2v0-0.53c0-3.747-0.323-6.253-0.97-7.52v0c-0.733-1.453-2.247-2.18-4.54-2.18v0h-0.37c-2.393 0-4.877 0.597-7.45 1.79v0c-0.747 0.34-1.373 0.69-1.88 1.05zM120.41-2.39l1.76-3.37c3.353 1.873 6.723 2.81 10.11 2.81v0c2.813 0 4.463-1.003 4.95-3.01v0c0.167-0.68 0.25-1.513 0.25-2.5 0-0.987-0.117-1.75-0.35-2.29-0.227-0.547-0.607-0.957-1.14-1.23-0.54-0.267-1.253-0.463-2.14-0.59-0.887-0.133-2.013-0.317-3.38-0.55-1.367-0.24-2.62-0.507-3.76-0.8-1.14-0.293-2.11-0.717-2.91-1.27v0c-1.693-1.187-2.507-3.187-2.44-6v0-0.61c0-2.967 0.977-5.077 2.93-6.33v0c1.887-1.233 5.003-1.653 9.35-1.26v0c2.967 0.273 5.327 0.783 7.08 1.53v0l-1.14 3.69c-1.953-0.833-4.3-1.437-7.04-1.81v0c-0.847-0.113-1.64-0.17-2.38-0.17-0.74 0-1.41 0.057-2.01 0.17-0.6 0.113-1.103 0.327-1.51 0.64v0c-0.787 0.633-1.193 1.813-1.22 3.54v0c-0.053 2.033 0.513 3.327 1.7 3.88v0c1.14 0.54 2.493 0.91 4.06 1.11 1.56 0.207 2.837 0.387 3.83 0.54 0.993 0.153 1.897 0.36 2.71 0.62 0.813 0.26 1.513 0.677 2.1 1.25v0c1.22 1.153 1.813 3.163 1.78 6.03v0c-0.08 4.993-2.163 7.84-6.25 8.54v0c-1.233 0.213-2.47 0.32-3.71 0.32-1.233 0-2.37-0.077-3.41-0.23-1.033-0.16-2.02-0.377-2.96-0.65v0c-1.793-0.507-3.413-1.173-4.86-2zM148.9 0l5.76-37.35h6.38l8.49 27.58 1.44 5.96 1.39-5.98 8.21-27.56h6.08l6.03 37.35h-4.15l-4.55-28.22-0.68-6.59-1.49 6.64-8.42 28.15h-4.81l-8.79-28.3-1.73-6.49-0.83 6.54-4.13 28.27zM223.58-19.41v9.11c0 3.24 0.157 6.607 0.47 10.1v0l-3.62 0.3-0.61-3.4c-2.067 1.66-4.8 2.817-8.2 3.47v0c-1.107 0.213-2.09 0.32-2.95 0.32-0.867 0-1.63-0.04-2.29-0.12-0.653-0.087-1.287-0.247-1.9-0.48-0.613-0.233-1.18-0.563-1.7-0.99-0.52-0.42-0.973-0.98-1.36-1.68v0c-0.833-1.48-1.25-3.26-1.25-5.34 0-2.073 0.15-3.683 0.45-4.83 0.3-1.147 0.8-2.103 1.5-2.87v0c1.387-1.513 3.717-2.27 6.99-2.27 3.267 0 6.757 0.617 10.47 1.85v0-3.17c0-3.533-1.457-5.623-4.37-6.27v0c-0.947-0.213-2.03-0.32-3.25-0.32v0c-2.78 0-5.667 0.553-8.66 1.66v0l-0.91-3.52c0.833-0.553 2.95-1.05 6.35-1.49v0c1.073-0.127 2.363-0.19 3.87-0.19 1.507 0 2.983 0.18 4.43 0.54 1.447 0.353 2.65 0.937 3.61 1.75v0c1.953 1.613 2.93 4.227 2.93 7.84zM219.48-13.18v0c-3.807-0.96-7.32-1.44-10.54-1.44v0c-1.987 0-3.307 0.567-3.96 1.7v0c-0.44 0.8-0.66 1.98-0.66 3.54 0 1.567 0.087 2.7 0.26 3.4 0.167 0.7 0.447 1.277 0.84 1.73v0c0.767 0.867 2.027 1.3 3.78 1.3v0c2.753 0 5.48-0.71 8.18-2.13v0c0.833-0.42 1.583-0.89 2.25-1.41v0c-0.1-1.76-0.15-3.99-0.15-6.69zM247.56-4.57l1.39 3.18c-2.653 1.253-5.103 1.88-7.35 1.88v0c-4.067 0-6.377-1.743-6.93-5.23v0c-0.133-0.827-0.2-2.03-0.2-3.61v0-17.31h-3.51v-3l3.51-0.39 0.64-6.64h3.39v6.64h8.47v3.39h-8.47v17.24c0 2 0.147 3.277 0.44 3.83v0c0.54 1.007 1.613 1.51 3.22 1.51 1.613 0 3.413-0.497 5.4-1.49zM277.05-5.03l1.2 3.49c-3.373 1.353-7.093 2.03-11.16 2.03v0c-2.36 0-4.363-0.243-6.01-0.73v0c-2.62-0.753-4.36-2.3-5.22-4.64v0c-0.8-2.2-1.2-5.457-1.2-9.77v0-1.24c0-5.16 1.077-8.783 3.23-10.87v0c1.933-1.853 5.163-2.78 9.69-2.78v0c4.407 0 7.417 1.09 9.03 3.27v0c0.78 1.06 1.297 2.343 1.55 3.85 0.253 1.5 0.38 2.933 0.38 4.3v0c0 2.133-0.05 3.787-0.15 4.96v0c-2.293 0.1-4.35 0.15-6.17 0.15v0c0 0-1.31 0-3.93 0v0c-4.107 0-7.267-0.18-9.48-0.54v0c0 3.747 0.473 6.36 1.42 7.84v0c1.153 1.807 3.457 2.71 6.91 2.71 3.447 0 6.75-0.677 9.91-2.03zM258.81-16.41h15.6v-2.34c0-2.553-0.497-4.377-1.49-5.47v0c-1.107-1.22-3.017-1.83-5.73-1.83v0c-3.26 0-5.483 0.707-6.67 2.12v0c-1.14 1.353-1.71 3.86-1.71 7.52z" data-fill-palette-color="primary" fill="#27292a" opacity="1"></path></g></svg></g></svg></g></svg></g></svg></g><g transform="matrix(1,0,0,1,0,0.18472673437914722)"><svg viewBox="0 0 54.91621265786052 73.8906937516618" height="73.8906937516618" width="54.91621265786052"><g><svg xmlns="http://www.w3.org/2000/svg" xmlns:xlink="http://www.w3.org/1999/xlink" version="1.1" x="0" y="0" viewBox="14.948997497558594 2.6410000324249268 70.39598846435547 94.718994140625" enable-background="new 0 0 100.297 100" xml:space="preserve" height="73.8906937516618" width="54.91621265786052" class="icon-icon-0" fill="#fdc500" data-fill-palette-color="accent" id="icon-0"><path fill="#fdc500" d="M50.147 13.877c-13.317 0-24.153 10.834-24.153 24.152 0 13.319 10.836 24.157 24.153 24.157s24.155-10.838 24.155-24.157C74.303 24.711 63.465 13.877 50.147 13.877zM50.147 56.529c-10.198 0-18.498-8.3-18.498-18.5 0-10.199 8.3-18.497 18.498-18.497 10.202 0 18.498 8.298 18.498 18.497C68.646 48.229 60.35 56.529 50.147 56.529z" data-fill-palette-color="accent"></path><path fill="#fdc500" d="M50.147 2.641c-19.406 0-35.198 15.792-35.198 35.202 0 4.285 0.775 8.451 2.258 12.371 0.665 1.618 3.353 7.584 9.022 13.373 0.226 0.21 0.434 0.44 0.665 0.644l23.253 24.703 2.509-2.665c4.914 0.398 7.816 1.881 8.435 2.665-0.718 0.908-4.495 2.769-10.944 2.769-6.45 0-10.225-1.86-10.942-2.769 0.51-0.646 2.597-1.764 6.066-2.363l-4.619-4.702c-4.138 1.324-7.175 3.638-7.175 7.065 0 5.789 8.641 8.426 16.67 8.426 8.03 0 16.669-2.637 16.669-8.426 0-4.03-4.189-6.528-9.441-7.677l16.119-17.125 3.654-3.898c2.354-2.947 3.959-5.703 4.947-7.647 2.137-4.591 3.25-9.583 3.25-14.743C85.348 18.434 69.559 2.641 50.147 2.641zM73.638 55.708L50.309 80.512c-0.052-0.002-0.107-0.004-0.162-0.004-0.054 0-0.105 0.004-0.157 0.006L30.918 60.256l-0.197-0.189c-1.374-1.201-2.646-2.545-3.784-3.992l-0.278-0.366c-3.961-5.197-6.054-11.376-6.054-17.864 0-16.292 13.254-29.547 29.542-29.547 16.29 0 29.543 13.255 29.543 29.547C79.69 44.331 77.6 50.511 73.638 55.708z" data-fill-palette-color="accent"></path></svg></g></svg></g></svg></g></svg><rect width="395.52" height="59.99482172195526" fill="transparent" stroke="transparent"></rect></g><defs></defs></svg>